PathFileType	4	(X/Y/Z)	Patient4_TMGait_0pt7_01_right_49.trc.trc
DataRate	CameraRate	NumFrames	NumMarkers	Units	OrigDataRate	OrigDataStartFrame	OrigNumFrames
85.365853658537	85.365853658537	5	33	mm	85.365853658537	53	       141
Frame#	Time	Sacral			L.Shoulder			Chest			R.Shoulder			Neck			R.ASIS			L.ASIS			R.Thigh.Superior			R.Thigh.Lateral			R.Thigh.Inferior			R.Patella			L.Thigh.Superior			L.Thigh.Lateral			L.Thigh.Inferior			L.Patella			L.Shank.Superior			L.Shank.Lateral			L.Shank.Inferior			R.Shank.Superior			R.Shank.Lateral			R.Shank.Inferior			R.Heel			R.Midfoot.Superior			R.Midfoot.Lateral			R.Toe			L.Heel			L.Midfoot.Lateral			L.Midfoot.Superior			L.Toe			L.Elbow			L.Wrist			R.Elbow			R.Wrist			
		X1	Y1	Z1	X2	Y2	Z2	X3	Y3	Z3	X4	Y4	Z4	X5	Y5	Z5	X6	Y6	Z6	X7	Y7	Z7	X8	Y8	Z8	X9	Y9	Z9	X10	Y10	Z10	X11	Y11	Z11	X12	Y12	Z12	X13	Y13	Z13	X14	Y14	Z14	X15	Y15	Z15	X16	Y16	Z16	X17	Y17	Z17	X18	Y18	Z18	X19	Y19	Z19	X20	Y20	Z20	X21	Y21	Z21	X22	Y22	Z22	X23	Y23	Z23	X24	Y24	Z24	X25	Y25	Z25	X26	Y26	Z26	X27	Y27	Z27	X28	Y28	Z28	X29	Y29	Z29	X30	Y30	Z30	X31	Y31	Z31	X32	Y32	Z32	X33	Y33	Z33	

53	56.979142857143	846.792021304480	1017.717752594540	544.598720756995	1045.223711020871	1429.050076900350	343.536004865536	1152.867666526750	1353.033779185642	500.324756358462	1087.119827222051	1442.247217482699	674.968287944106	1064.434977675546	1493.201381671016	496.184237780106	1074.747144027204	947.245460866463	655.925384743334	1051.218492293047	959.043314177966	381.900443636064	1103.634880098790	742.471937776749	631.107465234392	1013.576421685486	637.492253269091	686.451114238205	1089.785889086801	582.049470405863	608.373125302399	1084.697351348733	494.958749326713	612.387069711888	1137.272872664383	792.506831361109	402.397924448452	1096.489518864981	666.695660629032	318.045621412490	1209.061416376897	609.336121432039	369.051876402786	1227.888129649760	520.396146089404	358.152079352548	1165.049842700284	449.164161520343	353.430659260074	1024.818366918115	399.020832086366	308.884056181675	1022.541143232697	268.288698756898	361.200608533208	1055.841430104095	407.837938980775	615.771939794161	980.282432488917	304.217598277563	672.381785465453	1023.319796757508	210.027964382889	607.214365257473	886.081571516130	46.599347309122	568.837791472791	1059.108684945635	97.479539823448	605.773001772620	969.798894197315	37.613900150723	642.228017783313	1178.268241689366	40.568659173987	631.760929573472	838.353584305026	196.959322158036	403.542330746855	893.973110974182	149.036221599091	323.298552913097	999.382751175511	160.440055555479	340.726030779130	1078.268725262595	48.708365581661	314.855197794267	973.345818972607	1077.795619485990	253.075971667332	1050.815734535278	827.214477998402	257.768443470553	1090.396617752680	1103.353650889434	819.284088945155	1293.679229472794	947.999006602866	776.469533568005	
54	56.990857142857	845.737847968366	1018.623838926511	545.663604179304	1044.395318586510	1429.386479509097	344.260512328862	1152.835448272303	1352.673380771990	500.164299142611	1088.813249005171	1442.052842953200	675.374948391280	1064.765282580918	1493.265634717969	496.851073279157	1073.563862958289	947.059921059321	655.870888645700	1049.177629346625	959.522840367463	381.925477368494	1099.605723911115	741.718970513477	630.220889564029	1008.825561030611	637.651253166638	686.475154217050	1083.702527506403	581.318539693038	607.992210372251	1077.665636286318	494.652089355660	612.097375973274	1136.421972781540	795.815432170017	402.541026728505	1098.191781278404	669.428722406803	317.724097412118	1211.489048152392	614.030561153783	368.873587663208	1232.513976412649	526.170376943129	357.810172539787	1173.017774381890	452.988754468932	353.095094864158	1035.777682577861	395.381843399996	308.500453387016	1040.911833739422	264.457958292254	360.462844427495	1048.558329266402	407.745768243655	615.710927465749	972.712219016012	304.384450434699	672.430440250372	1015.440434364950	210.031500711713	607.244058741803	877.797338419857	46.659220352038	568.928496161908	1050.881224764917	97.486370056131	605.842492792066	961.513633664613	37.582615859143	642.273222760783	1169.970038570752	40.540543144949	631.806095173572	861.095343013674	182.251610259669	402.745000258096	919.403814340000	138.215566697630	322.175811094089	1024.031027623894	155.764849998937	339.578319067836	1109.507283048459	49.179812907885	313.018652680180	965.804267902697	1079.491795418788	254.367983687572	1026.518991721698	824.281454958357	255.244383065390	1102.517253152304	1103.933066000775	819.562430757691	1313.307732300092	960.959092609022	772.127471467408	
55	57.002571428571	844.712134844556	1019.412768703363	546.535572441017	1043.657123177624	1429.574341056462	344.868734406764	1152.851732845535	1352.147893894295	499.896496706193	1090.508612608293	1441.697967843258	675.646574910169	1065.120759724088	1493.164854623656	497.404703732279	1072.362255625072	946.708294101077	655.729615389463	1047.247623292292	959.802171296121	381.851242996975	1095.547581402795	740.847054866114	629.325597538779	1003.983954092852	637.722746628752	686.451249616683	1077.541602388967	580.491484616742	607.605782072130	1070.539859367577	494.283911058157	611.796339659143	1135.252120755930	798.503615599452	402.749414974336	1099.466485125484	671.693561995155	317.438696005201	1213.075108654542	617.919584504554	369.061695267459	1236.121752296552	531.337573829492	357.838851471002	1180.217527632327	456.447128057797	352.940023702180	1046.752734391184	391.166910213021	307.899698828323	1059.615677544206	260.453469512110	359.507310231947	1041.183405960944	407.586935323213	615.615695343907	965.068284490793	304.472726438159	672.424201831217	1007.499593485272	209.970596569436	607.226119931092	869.509900487349	46.633994881181	569.022252748003	1042.622059847698	97.487321262818	605.894458411988	953.206660456554	37.533440940353	642.312168560793	1161.656618539796	40.538295634085	631.847754030711	885.082573571765	167.170878896332	401.262127446349	946.080691547534	127.323184573734	320.553912622127	1049.438451043425	151.161719410292	338.207883115169	1141.424502100943	50.252891144407	311.253947997433	957.988866542502	1081.420751870385	255.118621458901	1003.017694508122	823.039130593186	252.957363112917	1114.372295127792	1104.754384198135	819.557416959515	1331.892826947508	974.721446022494	767.297591435561	
56	57.014285714286	843.721360954960	1020.063579742793	547.208551316228	1043.001883809969	1429.603103446804	345.354997529514	1152.909121702205	1351.449344738598	499.516524259157	1092.191608933245	1441.161187420333	675.780567308026	1065.505432475948	1492.885385247455	497.843605527022	1071.169673011880	946.199098024752	655.499548726399	1045.446876944115	959.856936146901	381.676532369162	1091.504443473719	739.850311116376	628.483033457105	999.064103631787	637.697926156677	686.387419321402	1071.348805710838	579.563332751979	607.250345535163	1063.363148028337	493.838024103324	611.504348888914	1133.787036024022	800.512809179104	403.034831749071	1100.301203089293	673.422687245956	317.197727348809	1213.823205888890	620.908305954101	369.622906829628	1238.714190712512	535.802615197903	358.254399798989	1186.607698684274	459.499007596000	352.978455863718	1057.747485782616	386.493801977340	307.049020924882	1078.519535319525	256.457409898039	358.351764823735	1033.747396283443	407.340698767801	615.485721408121	957.363781555728	304.475002349973	672.366006079363	999.504422115417	209.834863659770	607.161575275530	861.213126612209	46.517160569868	569.115779156910	1034.322109236933	97.477524118854	605.926122837632	944.875682917107	37.469036297239	642.350203000210	1153.325891932709	40.567982184851	631.886902196419	910.192273202400	152.070475389362	399.074015024407	973.855497983561	116.709275550692	318.440291105382	1075.405865905975	146.896414873059	336.651017888692	1173.714759075265	52.205686846128	309.651487080124	949.944983306659	1083.572144912663	255.359669007995	980.609414987743	823.244052420027	250.950734532868	1125.938737859815	1105.769509389043	819.265152539637	1349.347524517645	989.189325698838	762.014991460776	
57	57.026000000000	842.778578920932	1020.553938270948	547.679773512482	1042.423918930035	1429.467084363027	345.714420872414	1152.999447149869	1350.577321070422	499.023797690234	1093.843549449191	1440.431221061625	675.775565064128	1065.918671078023	1492.420469572615	498.165727101199	1070.015696402160	945.544412682123	655.179398543348	1043.798625798607	959.673302053817	381.396529107361	1087.520193995141	738.726121099139	627.738536197199	994.088180261687	637.571161792282	686.286561793243	1065.170387166932	578.534502251924	606.946754200576	1056.183944215185	493.299547789893	611.229393380254	1132.060044304912	801.804846848009	403.389362992278	1100.676859294519	674.558620641921	316.994516665440	1213.752860500460	622.930567167900	370.525902216320	1240.316474137434	539.495880223120	359.046230188583	1192.161753094569	462.114414200450	353.208889858239	1068.739117270801	381.486164324970	305.930988561090	1097.460098600559	252.636417038439	357.030956132600	1026.286790870166	406.990628536089	615.316096976242	949.620761195087	304.386970933272	672.257916572222	991.465722119034	209.616933894636	607.049504357107	852.900794783136	46.308832977266	569.202337948808	1025.974304323210	97.452703398015	605.934698572001	936.519484404384	37.393067443867	642.392878708149	1144.976983065638	40.634237230998	631.923378843619	936.233004817362	137.281286497769	396.212421342244	1002.512519717987	106.683920020509	315.883716787303	1101.692364435073	143.201294500999	334.962041768593	1206.047146901845	55.261685120761	308.303102413852	941.743806768843	1085.928477756506	255.142925618981	959.497174321484	824.626017348361	249.250851466825	1137.199829693852	1106.933997143623	818.679443669382	1365.594840524138	1004.252959980009	756.322494367016	
